<?xml version="1.0" encoding="UTF-8"?>
<svg id="Layer_1" data-name="Layer 1" xmlns="http://www.w3.org/2000/svg" viewBox="0 0 713.87 244.34">
    <defs>
        <style>
            .cls-1 {
            fill: #2a3e59;
            }

            .cls-1, .cls-2, .cls-3, .cls-4 {
            stroke-width: 0px;
            }

            .cls-2 {
            fill-rule: evenodd;
            }

            .cls-2, .cls-3, .cls-4 {
            fill: #6dbb7b;
            }

            .cls-4 {
            opacity: .5;
            }
        </style>
    </defs>
    <g>
        <path class="cls-1"
              d="m580.38,17.62h-33.77l-49.64,83.79-51.05-83.79h-33.76v145.02h37.91v-74.79l37.08,60.49h18.23l37.34-62.65.37,76.95h37.7l-.41-145.02Z"/>
        <path class="cls-1"
              d="m607.42,17.62v31.08h49.15v61.13c0,13.81-5.96,20.72-17.87,20.72-4.47,0-8.73-1.25-12.79-3.76-4.07-2.5-8-6.19-11.79-11.07l-21.93,26c5.55,6.77,12.56,11.95,21.02,15.54,8.46,3.58,17.91,5.38,28.34,5.38,17.87,0,31.48-4.57,40.82-13.71,9.34-9.14,14.01-22.98,14.01-41.53V17.62h-88.96Z"/>
    </g>
    <g>
        <path class="cls-1" d="m247.81,226.72v-41.06h-15.88v-4.13h36.54v4.13h-15.88v41.06h-4.78Z"/>
        <path class="cls-1"
              d="m280.86,222.58h27.18v4.13h-31.96v-45.19h30.99v4.13h-26.21v36.93Zm-.52-20.85h23.89v4.07h-23.89v-4.07Z"/>
        <path class="cls-1"
              d="m339.22,226.72c-3.34,0-6.43-.56-9.27-1.68-2.84-1.12-5.29-2.7-7.36-4.73-2.07-2.03-3.69-4.42-4.86-7.17-1.16-2.75-1.75-5.75-1.75-9.01s.58-6.26,1.75-9.01c1.16-2.75,2.79-5.14,4.89-7.17,2.09-2.03,4.56-3.61,7.39-4.73,2.83-1.12,5.92-1.68,9.27-1.68s6.24.54,9.08,1.62c2.83,1.08,5.23,2.7,7.17,4.86l-2.98,2.98c-1.82-1.86-3.83-3.21-6.03-4.03-2.2-.83-4.57-1.24-7.11-1.24-2.67,0-5.14.46-7.43,1.36-2.29.91-4.27,2.2-5.97,3.87-1.69,1.67-3.01,3.62-3.97,5.84-.95,2.22-1.43,4.67-1.43,7.33s.48,5.11,1.43,7.33c.95,2.22,2.27,4.17,3.97,5.84,1.69,1.67,3.68,2.96,5.97,3.87,2.28.91,4.76,1.36,7.43,1.36s4.91-.42,7.11-1.27c2.2-.85,4.21-2.2,6.03-4.06l2.98,2.98c-1.95,2.16-4.34,3.79-7.17,4.89-2.84,1.1-5.88,1.65-9.14,1.65Z"/>
        <path class="cls-1"
              d="m370.34,226.72h-4.78v-45.19h4.78v45.19Zm28.73-20.85h-29.24v-4.2h29.24v4.2Zm-.45-24.34h4.71v45.19h-4.71v-45.19Z"/>
        <path class="cls-1"
              d="m417.03,226.72v-45.19h3.94l31.18,39.25h-2.07v-39.25h4.71v45.19h-3.94l-31.12-39.25h2.07v39.25h-4.78Z"/>
        <path class="cls-1"
              d="m488.19,226.72c-3.34,0-6.44-.56-9.3-1.68-2.86-1.12-5.33-2.71-7.43-4.76-2.09-2.05-3.72-4.44-4.89-7.17-1.16-2.73-1.75-5.72-1.75-8.98s.58-6.25,1.75-8.98c1.16-2.73,2.79-5.12,4.89-7.17,2.09-2.05,4.56-3.64,7.39-4.76,2.83-1.12,5.94-1.68,9.33-1.68s6.43.56,9.27,1.68c2.83,1.12,5.3,2.7,7.39,4.73,2.09,2.03,3.72,4.42,4.89,7.17,1.16,2.75,1.75,5.76,1.75,9.01s-.58,6.26-1.75,9.01c-1.16,2.75-2.79,5.14-4.89,7.17-2.09,2.03-4.56,3.61-7.39,4.73-2.84,1.12-5.92,1.68-9.27,1.68Zm0-4.19c2.67,0,5.13-.45,7.39-1.36,2.26-.91,4.23-2.2,5.9-3.87,1.67-1.67,2.97-3.62,3.9-5.84.93-2.22,1.4-4.67,1.4-7.33s-.47-5.11-1.4-7.33c-.93-2.22-2.23-4.17-3.9-5.84-1.67-1.67-3.64-2.96-5.9-3.87-2.26-.91-4.73-1.36-7.39-1.36s-5.14.46-7.43,1.36c-2.29.91-4.26,2.2-5.93,3.87-1.67,1.67-2.98,3.62-3.93,5.84-.95,2.22-1.43,4.67-1.43,7.33s.48,5.06,1.43,7.3c.95,2.24,2.26,4.2,3.93,5.87,1.67,1.67,3.65,2.96,5.93,3.87,2.28.91,4.76,1.36,7.43,1.36Z"/>
        <path class="cls-1" d="m522.81,226.72v-45.19h4.78v41.06h25.31v4.13h-30.08Z"/>
        <path class="cls-1"
              d="m579.53,226.72c-3.34,0-6.44-.56-9.3-1.68-2.86-1.12-5.33-2.71-7.43-4.76-2.09-2.05-3.72-4.44-4.89-7.17-1.16-2.73-1.75-5.72-1.75-8.98s.58-6.25,1.75-8.98c1.16-2.73,2.79-5.12,4.89-7.17,2.09-2.05,4.56-3.64,7.39-4.76,2.83-1.12,5.94-1.68,9.33-1.68s6.43.56,9.27,1.68c2.83,1.12,5.3,2.7,7.39,4.73,2.09,2.03,3.72,4.42,4.89,7.17,1.16,2.75,1.75,5.76,1.75,9.01s-.58,6.26-1.75,9.01c-1.16,2.75-2.79,5.14-4.89,7.17-2.09,2.03-4.56,3.61-7.39,4.73-2.84,1.12-5.92,1.68-9.27,1.68Zm0-4.19c2.67,0,5.13-.45,7.39-1.36,2.26-.91,4.23-2.2,5.9-3.87,1.67-1.67,2.97-3.62,3.9-5.84.93-2.22,1.4-4.67,1.4-7.33s-.47-5.11-1.4-7.33c-.93-2.22-2.23-4.17-3.9-5.84-1.67-1.67-3.64-2.96-5.9-3.87-2.26-.91-4.73-1.36-7.39-1.36s-5.14.46-7.43,1.36c-2.29.91-4.26,2.2-5.93,3.87-1.67,1.67-2.98,3.62-3.94,5.84-.95,2.22-1.43,4.67-1.43,7.33s.48,5.06,1.43,7.3c.95,2.24,2.26,4.2,3.94,5.87,1.67,1.67,3.65,2.96,5.93,3.87,2.29.91,4.76,1.36,7.43,1.36Z"/>
        <path class="cls-1"
              d="m632.84,226.72c-3.39,0-6.51-.56-9.36-1.68-2.86-1.12-5.33-2.7-7.43-4.73-2.09-2.03-3.72-4.42-4.89-7.17-1.16-2.75-1.75-5.75-1.75-9.01s.58-6.26,1.75-9.01c1.16-2.75,2.8-5.14,4.92-7.17,2.12-2.03,4.6-3.61,7.46-4.73,2.86-1.12,5.98-1.68,9.36-1.68s6.48.53,9.3,1.59c2.81,1.06,5.21,2.67,7.2,4.82l-2.92,2.98c-1.86-1.86-3.91-3.19-6.16-4-2.24-.8-4.66-1.21-7.24-1.21-2.75,0-5.28.46-7.58,1.36-2.31.91-4.32,2.2-6.03,3.87-1.71,1.67-3.05,3.62-4,5.84-.95,2.22-1.43,4.67-1.43,7.33s.48,5.06,1.43,7.3c.95,2.24,2.29,4.2,4,5.87,1.71,1.67,3.72,2.96,6.03,3.87,2.31.91,4.81,1.36,7.52,1.36,2.54,0,4.94-.38,7.2-1.14,2.26-.76,4.35-2.05,6.25-3.87l2.67,3.55c-2.12,1.86-4.59,3.27-7.43,4.22-2.84.95-5.8,1.43-8.89,1.43Zm11.81-6.22v-16.38h4.51v16.95l-4.51-.57Z"/>
        <path class="cls-1"
              d="m673.6,226.72v-16.79l1.1,2.97-19.17-31.38h5.1l16.85,27.57h-2.71l16.85-27.57h4.78l-19.17,31.38,1.1-2.97v16.79h-4.71Z"/>
    </g>
    <path class="cls-1"
          d="m184.43,106.78c-4.81-8.67-13.69-14.3-23.58-14.96-2.4-.15-4.23-2.22-4.08-4.62.15-2.4,2.22-4.23,4.62-4.08.09,0,.18.02.26.03,2.62.26,5.2.77,7.72,1.52-7.88-19.53-26.85-32.29-47.9-32.23-21.05.05-39.95,12.92-47.73,32.48,2.82-.9,5.72-1.49,8.66-1.77,2.38-.28,4.55,1.43,4.82,3.82.1.81-.04,1.62-.38,2.35-.67,1.43-2.07,2.39-3.64,2.5-9.88.66-18.74,6.29-23.55,14.94-3.33,6.44-3.89,13.96-1.56,20.82,2.98,8.98,9.37,16.44,17.78,20.76,4.97,2.48,10.4,3.91,15.94,4.22,2.4.1,4.27,2.13,4.17,4.54-.1,2.37-2.07,4.22-4.45,4.17h-.28c-1.47-.09-2.9-.27-4.33-.48,8.69,12.38,19.9,22.77,32.91,30.49,1.32.79,2.97.82,4.32.07,13.02-7.76,24.26-18.17,33.01-30.55-1.44.21-2.89.39-4.36.49h-.28c-2.4.05-4.4-1.86-4.45-4.27-.05-2.37,1.81-4.34,4.18-4.44,5.55-.31,10.97-1.75,15.95-4.22,8.41-4.34,14.79-11.8,17.76-20.8,2.34-6.84,1.79-14.35-1.53-20.78Zm-75.48-23.82h26.14c2.41,0,4.35,1.96,4.35,4.36s-1.95,4.35-4.35,4.36h-26.14c-2.4-.01-4.35-1.96-4.35-4.36s1.95-4.36,4.35-4.36Zm16.15,66.62l4.36,4.36c1.71,1.69,1.73,4.44.04,6.16-1.69,1.71-4.45,1.72-6.16.03-.02-.01-.03-.02-.04-.03l-1.28-1.28-1.27,1.28c-1.75,1.66-4.5,1.59-6.16-.15-1.61-1.68-1.61-4.33,0-6.01l4.35-4.36c1.7-1.7,4.46-1.7,6.16,0Zm-30.17-5.63c-5.22.08-10.38-1.08-15.06-3.37-6.33-3.05-11.17-8.5-13.48-15.13-1.64-4.82-1.26-10.11,1.06-14.65,5.33-10.15,19.57-13.43,31.75-7.31,8.41,4.86,14.72,12.67,17.69,21.92,1.21,3.31.98,6.96-.62,10.09-1.66,3.2-4.57,5.57-8.04,6.53-4.33,1.23-8.8,1.87-13.3,1.92Zm43.24,29.21c-4.47,3.87-10.24,5.89-16.15,5.64-5.9.25-11.68-1.77-16.15-5.64-1.55-1.71-1.5-4.33.12-5.98,1.62-1.65,4.25-1.75,5.98-.22,2.87,2.21,6.44,3.32,10.05,3.12,3.61.19,7.16-.92,10.02-3.12,1.74-1.64,4.46-1.58,6.13.12,1.67,1.69,1.67,4.4,0,6.08Zm39.48-47.71c-2.31,6.64-7.17,12.08-13.5,15.13-4.67,2.29-9.82,3.45-15.03,3.37-4.49-.05-8.96-.69-13.29-1.91-3.47-.96-6.39-3.33-8.04-6.53-1.6-3.12-1.83-6.78-.63-10.08,2.97-9.24,9.27-17.06,17.68-21.92,12.2-6.13,26.44-2.86,31.76,7.3,2.32,4.54,2.69,9.81,1.05,14.64Z"/>
    <path class="cls-2"
          d="m148.76,111.28c-6.43,3.89-11.21,9.99-13.44,17.16-.37,1.01-.29,2.14.21,3.09.53,1.04,1.48,1.82,2.61,2.12,7.22,2.39,15.07,2.09,22.08-.84,4.25-2,7.53-5.6,9.13-10.02.92-2.6.75-5.47-.48-7.94-3.13-5.97-12.16-7.57-20.12-3.57h0Z"/>
    <path class="cls-2"
          d="m108.72,128.43c-2.24-7.17-7.02-13.27-13.45-17.15-2.78-1.41-5.84-2.16-8.96-2.18-4.5-.31-8.8,1.92-11.14,5.78-1.23,2.47-1.4,5.34-.48,7.94,1.59,4.42,4.87,8.02,9.12,10.02,7.02,2.93,14.87,3.23,22.1.85,1.13-.31,2.08-1.08,2.61-2.12.51-.97.59-2.11.2-3.14h0Z"/>
    <path class="cls-1"
          d="m191.27,43.92c-18.43-16.34-42.68-26.27-69.25-26.3-57.74,0-104.54,46.81-104.54,104.55s46.8,104.54,104.54,104.54c43.87,0,81.43-27.02,96.94-65.32,4.91-12.11,7.61-25.35,7.61-39.22-.04-31.15-13.68-59.1-35.3-78.25Zm18.18,117.47c-15.01,33.34-48.5,56.57-87.43,56.61-52.92,0-95.83-42.91-95.83-95.83S69.09,26.33,122.02,26.33c27.23,0,51.81,11.36,69.25,29.6,16.46,17.22,26.58,40.55,26.58,66.24-.02,13.97-3.02,27.25-8.4,39.22Z"/>
    <path class="cls-1"
          d="m191.27,69.36c-15.92-20.83-41.01-34.28-69.25-34.31-48.11,0-87.12,39-87.12,87.12s39.01,87.12,87.12,87.12c34.01,0,63.46-19.49,77.81-47.9,5.96-11.78,9.31-25.11,9.31-39.22-.02-19.86-6.67-38.16-17.87-52.81Zm2.98,60.83c-.8,2.42-1.8,4.76-2.98,6.98-4.27,8.07-10.93,14.71-19.15,18.94-.81.41-1.66.74-2.5,1.11-9.85,17.2-24,31.54-41.06,41.61-1.96,1.14-4.18,1.74-6.44,1.75-2.34-.01-4.64-.63-6.66-1.81-17.04-10.07-31.18-24.39-41.02-41.55-.83-.37-1.68-.69-2.49-1.1-10.49-5.39-18.45-14.69-22.16-25.89-5.03-14.74.32-31.02,13.11-39.9,6.38-27.19,30.57-46.46,58.5-46.6s52.31,18.89,58.96,46.01c4.58,3,8.26,6.94,10.91,11.43,5.06,8.57,6.36,19.13,2.98,29.02Z"/>
    <path class="cls-1"
          d="m336.33,17.62h-34.48l-58.19,145.02h30.11l11.31-28.18h61.49l11.31,28.18h42.67L336.33,17.62Zm-39.12,86.6l18.61-46.37,18.61,46.37h-37.22Z"/>
    <path class="cls-3" d="m301.86,17.62l-3.17,7.89-48.98,122.09c9.01-26.58,20.92-83.45-19.63-129.98h71.78Z"/>
    <path class="cls-4"
          d="m249.7,147.6l-5.99,14.93-.05.11c.14-.41.28-.83.41-1.25,3.98-12.36,6.12-25.54,6.12-39.22,0-.3,0-.6-.01-.9-.34-42.79-21.62-80.59-54.1-103.65h33.99c40.55,46.53,28.64,103.4,19.63,129.98Z"/>
</svg>