<?xml version="1.0" encoding="UTF-8"?><svg id="Layer_2" xmlns="http://www.w3.org/2000/svg" viewBox="0 0 1920 1080"><defs><style>.cls-1{fill:#1965a5;}.cls-2{fill:#f1f2f2;}</style></defs><path class="cls-2" d="M1443.58-163.71c-107.38,131.93,116.73,394.98-16.34,576-63.63,86.55-134.01,52.46-224.68,147.06-128.96,134.56-166.49,391.28-69.45,543.32,150.27,235.42,619.35,213.83,866.04,12.26,365.79-298.89,283.28-1026.73-57.19-1254.13-159.67-106.64-413.8-128.43-498.38-24.51Z"/><path class="cls-1" d="M1501.79-80.99c-107.38,131.93,116.73,394.98-16.34,576-63.63,86.55-134.01,52.46-224.68,147.06-128.96,134.56-166.49,391.28-69.45,543.32,150.27,235.42,619.35,213.83,866.04,12.26,365.79-298.89,283.28-1026.73-57.19-1254.13-159.67-106.64-413.8-128.43-498.38-24.51Z"/></svg>