<?xml version="1.0" encoding="UTF-8"?>
<svg xmlns="http://www.w3.org/2000/svg" version="1.1" viewBox="0 0 1920 1080">
  <defs>
    <style>
      .cls-1 {
        fill: #fff;
      }

      .cls-2 {
        fill: #f8fafc;
      }
    </style>
  </defs>
  <!-- Generator: Adobe Illustrator 28.6.0, SVG Export Plug-In . SVG Version: 1.2.0 Build 709)  -->
  <g>
    <g id="Layer_2">
      <g>
        <g>
          <path class="cls-1" d="M1178.4,836.6c237.6-.6,504.1-.6,741.6,0-237.6.6-504.1.6-741.6,0h0Z"/>
          <path class="cls-1" d="M1178.4,766.7c237.6-.6,504.1-.6,741.6,0-237.6.6-504.1.6-741.6,0h0Z"/>
          <path class="cls-1" d="M1178.4,696.8c237.6-.6,504.1-.6,741.6,0-237.6.6-504.1.6-741.6,0h0Z"/>
          <path class="cls-1" d="M1178.4,626.9c237.6-.6,504.1-.6,741.6,0-237.6.6-504.1.6-741.6,0h0Z"/>
          <path class="cls-1" d="M1178.4,557c237.6-.6,504.1-.6,741.6,0-237.6.6-504.1.6-741.6,0h0Z"/>
          <path class="cls-1" d="M1178.4,487.1c237.6-.6,504.1-.6,741.6,0-237.6.6-504.1.6-741.6,0h0Z"/>
          <path class="cls-1" d="M1178.4,417.1c237.6-.6,504.1-.6,741.6,0-237.6.6-504.1.6-741.6,0h0Z"/>
          <path class="cls-1" d="M1178.4,347.2c237.6-.6,504.1-.6,741.6,0-237.6.6-504.1.6-741.6,0h0Z"/>
        </g>
        <g>
          <path class="cls-1" d="M1793.9,962.7c-.6-237.6-.6-504.1,0-741.6.6,237.6.6,504.1,0,741.6h0Z"/>
          <path class="cls-1" d="M1724,962.7c-.6-237.6-.6-504.1,0-741.6.6,237.6.6,504.1,0,741.6h0Z"/>
          <path class="cls-1" d="M1654.1,962.7c-.6-237.6-.6-504.1,0-741.6.6,237.6.6,504.1,0,741.6h0Z"/>
          <path class="cls-1" d="M1584.1,962.7c-.6-237.6-.6-504.1,0-741.6.6,237.6.6,504.1,0,741.6h0Z"/>
          <path class="cls-1" d="M1514.2,962.7c-.6-237.6-.6-504.1,0-741.6.6,237.6.6,504.1,0,741.6h0Z"/>
          <path class="cls-1" d="M1444.3,962.7c-.6-237.6-.6-504.1,0-741.6.6,237.6.6,504.1,0,741.6h0Z"/>
          <path class="cls-1" d="M1374.4,962.7c-.6-237.6-.6-504.1,0-741.6.6,237.6.6,504.1,0,741.6h0Z"/>
          <path class="cls-1" d="M1304.5,962.7c-.6-237.6-.6-504.1,0-741.6.6,237.6.6,504.1,0,741.6h0Z"/>
        </g>
      </g>
      <path class="cls-2" d="M198.3,1101.1s65.5-95.6,126.6-102.1c85.5-9.1,129.6,83.1,214.5,67.4,54.5-10.1,47.8-50.2,108.3-73.5,100.4-38.8,158.4,56.6,286,38.8,94.3-13.1,85.9-68.6,194-89.9,105.1-20.7,141.3,26.1,247.1,14.3,119.7-13.3,119.3-94,214.5-98,108.7-4.6,134.5,87.7,250.7,83.2,96.7-3.7,134.8-69.8,174.6-49,56.6,29.6,4.6,208.9,4.6,208.9H198.3Z"/>
    </g>
  </g>
</svg>