<?xml version="1.0" encoding="UTF-8"?>
<svg id="Layer_1" data-name="Layer 1" xmlns="http://www.w3.org/2000/svg" version="1.1" xmlns:xlink="http://www.w3.org/1999/xlink" viewBox="0 0 527.5 205.6">
  <defs>
    <style>
      .cls-1 {
        fill: url(#linear-gradient);
      }

      .cls-1, .cls-2, .cls-3, .cls-4, .cls-5, .cls-6 {
        stroke-width: 0px;
      }

      .cls-2 {
        fill: #231f20;
      }

      .cls-3 {
        fill: url(#linear-gradient-5);
      }

      .cls-4 {
        fill: url(#linear-gradient-2);
      }

      .cls-5 {
        fill: url(#linear-gradient-3);
      }

      .cls-6 {
        fill: url(#linear-gradient-4);
      }
    </style>
    <linearGradient id="linear-gradient" x1="321.5" y1="90.1" x2="4.4" y2="90.1" gradientUnits="userSpaceOnUse">
      <stop offset="0" stop-color="#1490ca"/>
      <stop offset="1" stop-color="#1f4280"/>
    </linearGradient>
    <linearGradient id="linear-gradient-2" x1="321.5" y1="143.2" x2="4.4" y2="143.2" xlink:href="#linear-gradient"/>
    <linearGradient id="linear-gradient-3" x1="321.5" y1="102.8" x2="4.4" y2="102.8" xlink:href="#linear-gradient"/>
    <linearGradient id="linear-gradient-4" x1="321.5" y1="110.5" x2="4.4" y2="110.5" xlink:href="#linear-gradient"/>
    <linearGradient id="linear-gradient-5" x1="321.5" y1="110.5" x2="4.4" y2="110.5" xlink:href="#linear-gradient"/>
  </defs>
  <g>
    <path class="cls-1" d="M49.4,85.8c-1.6-2.2-3-4.4-4.4-6.6v-17h32.6v55.9c-10.5-10.2-20-21.1-28.2-32.3Z"/>
    <path class="cls-4" d="M121.2,133.6v19.2c-9-5.9-17.8-12.3-26.2-19.2h26.2Z"/>
    <path class="cls-5" d="M242.9,169.7c-.1,8.5-3.6,17-10.1,22.7-25,21.6-70.1,10.2-97.6-1.7-18.2-8.1-36.6-18.9-53.6-31.8h-36.7v-33.8c-14.9-16.9-27.2-35.7-35-55.8C2.7,50.3-.5,23.2,18.9,10.4,29.5,3.2,42.7.3,55.3,1.3c-12.6-.5-25.5,2.6-35.8,10C7.9,19.5,5.2,33,6.6,46.4c.8,7.7,3,15.4,5.7,22.1,7.5,18.3,18.8,35.8,32.7,51.9,11,12.8,23.7,24.6,37.3,35.1,0,0,0,0,0,0,1.5,1.1,3,2.3,4.5,3.4,23,17,48.4,30.3,73.1,37.9,22.4,6.5,52.9,10.7,72.3-5.1,6.5-5.4,10.2-13.6,10.7-22Z"/>
    <path class="cls-2" d="M86.9,158.9h0c-1.5-1.1-3-2.3-4.5-3.4,1.5,1.1,3,2.3,4.6,3.4Z"/>
    <polygon class="cls-6" points="225.5 62.2 225.5 158.9 198.7 158.9 161.9 114.9 161.9 158.9 130.2 158.9 130.2 62.2 156.9 62.2 193.7 106.2 193.7 62.2 225.5 62.2"/>
    <polygon class="cls-3" points="319.8 86.8 319.8 62.2 241.2 62.2 241.2 158.9 273.8 158.9 273.8 127.9 314.1 127.9 314.1 103.4 273.8 103.4 273.8 86.8 319.8 86.8"/>
    <path class="cls-2" d="M209.6,195.6c-4.4.9-8.8,1.2-13.3,1.2s-11.5-.6-17.1-1.5c-28.3-5.1-57.6-18.5-83.7-36.5-19-13.1-36.4-28.6-50.6-45.1-4.5-5.3-8.7-10.6-12.5-16-12.2-17.7-24.4-41.2-19.9-63.3C16.4,16.8,31.3,7.9,48.3,6.8c1.5,0,3-.1,4.5-.1,36.6,0,76.7,23.6,103.6,46.3-24.7-14.5-51.4-27.2-79.6-32.6-7.1-1.2-13.4-1.8-18.9-1.8-41.6,0-38.3,33.6-12.9,69.6.1.2.2.3.3.5,9.2,12.7,20.1,24.9,32.2,36.3,3.1,2.9,6.4,5.8,9.7,8.7,10.7,9.2,22.1,17.6,34,25.1,15.1,9.5,30.8,17.5,46.4,23.4,10.1,3.6,23.9,7.5,36.6,7.5s21.6-3.1,28.1-12.1c2.7-3.8,4.2-8.5,4.8-13.3,1.1,17.2-11.4,28.4-27.6,31.4Z"/>
  </g>
  <rect class="cls-2" x="337.2" y="62" width="3.1" height="96.7"/>
  <g>
    <polygon class="cls-2" points="373 81.7 362.5 81.7 362.5 64.6 357.6 64.6 357.6 85.6 373 85.6 373 81.7"/>
    <path class="cls-2" d="M378.4,84.8c1.3.7,2.9,1.1,4.6,1.1s3.2-.4,4.6-1.1c1.3-.7,2.4-1.7,3.1-3,.8-1.2,1.1-2.7,1.1-4.3s-.4-3.1-1.1-4.3c-.8-1.2-1.8-2.2-3.1-2.9-1.3-.7-2.9-1.1-4.6-1.1s-3.2.4-4.6,1.1c-1.3.7-2.4,1.7-3.1,2.9-.8,1.2-1.2,2.7-1.2,4.3s.4,3,1.2,4.3c.8,1.2,1.8,2.2,3.1,3ZM379.4,75.2c.4-.7.9-1.2,1.5-1.5.6-.4,1.3-.5,2.1-.5s1.5.2,2.1.5c.6.4,1.1.9,1.5,1.5.4.7.5,1.5.5,2.4s-.2,1.7-.5,2.4c-.4.7-.8,1.2-1.5,1.5-.6.4-1.3.5-2.1.5s-1.5-.2-2.1-.5c-.6-.4-1.1-.9-1.5-1.5-.4-.7-.6-1.5-.6-2.4s.2-1.7.6-2.4Z"/>
    <path class="cls-2" d="M397.8,83.9c1.2.7,2.6,1,4.1,1s2.6-.3,3.6-.8c.6-.3,1.1-.7,1.5-1.2v.7c0,1.5-.4,2.6-1.1,3.3-.8.7-2,1.1-3.6,1.1s-2.1-.2-3.1-.5-1.9-.8-2.6-1.3l-1.9,3.4c.9.7,2.1,1.3,3.5,1.7,1.4.4,2.9.6,4.4.6,2.9,0,5.2-.7,6.7-2.1,1.6-1.4,2.3-3.6,2.3-6.6v-13.4h-4.4v2.1c-.5-.6-1.1-1.1-1.7-1.5-1-.5-2.2-.8-3.6-.8s-2.9.3-4.1,1c-1.2.6-2.2,1.5-2.9,2.7-.7,1.2-1.1,2.5-1.1,4.1s.4,2.9,1.1,4.1c.7,1.2,1.7,2.1,2.9,2.7ZM399.1,75c.4-.6.9-1,1.5-1.4.6-.3,1.4-.5,2.2-.5s1.5.2,2.2.5c.6.3,1.1.8,1.5,1.4.4.6.5,1.3.5,2.1s-.2,1.5-.5,2.1-.9,1.1-1.5,1.4c-.6.3-1.4.5-2.2.5s-1.5-.2-2.2-.5c-.6-.3-1.1-.8-1.5-1.4s-.6-1.3-.6-2.1.2-1.5.6-2.1Z"/>
    <rect class="cls-2" x="416" y="69.5" width="4.7" height="16.1"/>
    <path class="cls-2" d="M418.3,67.3c.9,0,1.6-.3,2.1-.8.5-.5.8-1.2.8-1.9s-.3-1.3-.8-1.8c-.5-.5-1.2-.7-2.1-.7s-1.6.3-2.1.7c-.5.5-.8,1.1-.8,1.9s.3,1.4.8,1.9,1.2.7,2.1.7Z"/>
    <path class="cls-2" d="M432.9,82c-.4.3-1.2.4-2.3.4s-2-.1-3-.4c-1-.3-1.9-.7-2.6-1.1l-1.6,3.4c.7.5,1.7.9,3,1.2,1.3.3,2.6.5,4,.5s3-.2,4.1-.7c1.1-.4,2-1,2.6-1.8.6-.8.9-1.7.9-2.7s-.2-1.7-.5-2.2c-.4-.6-.8-1-1.4-1.3-.6-.3-1.2-.6-1.9-.8-.7-.2-1.4-.3-2.1-.4-.7,0-1.3-.2-1.9-.3-.6-.1-1-.3-1.4-.5-.4-.2-.5-.5-.5-.9s.2-.8.7-1.1c.5-.3,1.2-.4,2.3-.4s1.5,0,2.3.3c.8.2,1.6.5,2.4.9l1.6-3.3c-.8-.5-1.7-.8-2.8-1-1.1-.2-2.3-.4-3.4-.4-1.6,0-2.9.2-4,.7-1.1.4-2,1.1-2.6,1.8-.6.8-.9,1.7-.9,2.7s.2,1.7.5,2.2c.3.6.8,1,1.4,1.4.6.3,1.2.6,1.9.8.7.2,1.4.3,2.1.4.7.1,1.3.2,1.9.3.6.1,1,.2,1.4.4.3.2.5.5.5.9s-.2.8-.7,1.1Z"/>
    <path class="cls-2" d="M441.5,80.1c0,1.9.5,3.4,1.6,4.3,1.1,1,2.5,1.5,4.4,1.5s1.4,0,2.1-.3c.7-.2,1.2-.4,1.7-.8l-1.3-3.3c-.5.4-1.2.6-1.9.6s-1.1-.2-1.5-.6c-.4-.4-.5-.9-.5-1.6v-6.6h4v-3.6h-4v-3.9h-4.7v3.9h-2.5v3.6h2.5v6.6Z"/>
    <rect class="cls-2" x="454" y="69.5" width="4.7" height="16.1"/>
    <path class="cls-2" d="M456.3,67.3c.9,0,1.6-.3,2.1-.8.5-.5.8-1.2.8-1.9s-.3-1.3-.8-1.8c-.5-.5-1.2-.7-2.1-.7s-1.6.3-2.1.7c-.5.5-.8,1.1-.8,1.9s.3,1.4.8,1.9,1.2.7,2.1.7Z"/>
    <path class="cls-2" d="M466.1,84.8c1.4.7,2.9,1.1,4.6,1.1s3.2-.4,4.4-1.1c1.3-.7,2.2-1.7,2.8-3l-3.6-2c-.4.8-.9,1.3-1.6,1.7-.6.4-1.3.5-2.1.5s-1.5-.2-2.2-.5c-.6-.4-1.1-.9-1.5-1.5-.4-.7-.6-1.5-.6-2.4s.2-1.7.6-2.4c.4-.7.9-1.2,1.5-1.5s1.4-.5,2.2-.5,1.4.2,2.1.5c.6.4,1.2.9,1.6,1.7l3.6-1.9c-.6-1.3-1.5-2.3-2.8-3-1.3-.7-2.7-1.1-4.4-1.1s-3.3.4-4.6,1.1c-1.4.7-2.4,1.7-3.2,2.9-.8,1.2-1.2,2.7-1.2,4.3s.4,3,1.2,4.3c.8,1.3,1.8,2.2,3.2,3Z"/>
    <polygon class="cls-2" points="362.4 108.9 372.9 121.6 376.9 121.6 376.9 100.6 372.1 100.6 372.1 113.4 361.7 100.6 357.6 100.6 357.6 121.6 362.4 121.6 362.4 108.9"/>
    <path class="cls-2" d="M396.2,119.3l-2.5-2.7c-.5.5-1.1.9-1.8,1.2-.7.3-1.4.4-2.3.4s-1.8-.2-2.5-.5c-.7-.3-1.3-.9-1.6-1.5-.2-.4-.4-.8-.5-1.2h12.2c0-.2,0-.4,0-.6,0-.2,0-.4,0-.6,0-1.7-.4-3.2-1.1-4.5-.7-1.2-1.7-2.2-3-2.9-1.3-.7-2.7-1-4.3-1s-3.1.4-4.4,1.1c-1.3.7-2.3,1.7-3.1,2.9-.7,1.2-1.1,2.7-1.1,4.3s.4,3,1.1,4.3c.8,1.2,1.8,2.2,3.2,3,1.4.7,3,1.1,4.8,1.1s2.7-.2,3.9-.7c1.1-.4,2-1.1,2.8-1.9ZM386.9,109.3c.6-.3,1.3-.5,2.1-.5s1.5.2,2.1.5c.6.4,1.1.8,1.4,1.5.2.4.4.9.4,1.4h-7.9c0-.5.2-1,.4-1.4.3-.6.8-1.1,1.4-1.5Z"/>
    <path class="cls-2" d="M402.6,120.4c1.1,1,2.5,1.5,4.4,1.5s1.4,0,2.1-.3c.7-.2,1.2-.4,1.7-.8l-1.3-3.3c-.5.4-1.2.6-1.9.6s-1.1-.2-1.5-.6c-.4-.4-.5-.9-.5-1.6v-6.6h4v-3.6h-4v-3.9h-4.7v3.9h-2.5v3.6h2.5v6.6c0,1.9.5,3.4,1.6,4.3Z"/>
    <polygon class="cls-2" points="435 105.5 431.1 116.4 427.2 105.5 423.3 105.5 419.3 116.4 415.5 105.5 411.1 105.5 416.9 121.6 421.4 121.6 425.2 111.6 428.8 121.6 433.3 121.6 439.1 105.5 435 105.5"/>
    <path class="cls-2" d="M444,106.3c-1.3.7-2.4,1.7-3.1,2.9-.8,1.2-1.2,2.7-1.2,4.3s.4,3,1.2,4.3c.8,1.2,1.8,2.2,3.1,3,1.3.7,2.9,1.1,4.6,1.1s3.2-.4,4.6-1.1c1.3-.7,2.4-1.7,3.1-3,.8-1.2,1.1-2.7,1.1-4.3s-.4-3.1-1.1-4.3c-.8-1.2-1.8-2.2-3.1-2.9-1.3-.7-2.9-1.1-4.6-1.1s-3.2.4-4.6,1.1ZM452.1,111.2c.4.7.5,1.5.5,2.4s-.2,1.7-.5,2.4c-.4.7-.8,1.2-1.5,1.5-.6.4-1.3.5-2.1.5s-1.5-.2-2.1-.5c-.6-.4-1.1-.9-1.5-1.5-.4-.7-.6-1.5-.6-2.4s.2-1.7.6-2.4c.4-.7.9-1.2,1.5-1.5.6-.4,1.3-.5,2.1-.5s1.5.2,2.1.5c.6.4,1.1.9,1.5,1.5Z"/>
    <path class="cls-2" d="M465.2,114c0-1.5.4-2.7,1.2-3.4.8-.7,1.8-1.1,3.1-1.1s.3,0,.5,0c.2,0,.3,0,.5,0v-4.3c-1.5,0-2.8.3-3.9.9-.7.4-1.2.9-1.7,1.5v-2.1h-4.5v16.1h4.7v-7.6Z"/>
    <polygon class="cls-2" points="483.7 112.3 490.4 105.5 484.9 105.5 478 112 478 99.4 473.3 99.4 473.3 121.6 478 121.6 478 117.5 480.3 115.3 485.4 121.6 491 121.6 483.7 112.3"/>
    <polygon class="cls-2" points="357.6 157.6 362.5 157.6 362.5 150 372.2 150 372.2 146.1 362.5 146.1 362.5 140.5 373.5 140.5 373.5 136.6 357.6 136.6 357.6 157.6"/>
    <path class="cls-2" d="M387.7,142.3c-1.3-.7-2.7-1-4.3-1s-3.1.4-4.4,1.1c-1.3.7-2.3,1.7-3.1,2.9-.7,1.2-1.1,2.7-1.1,4.3s.4,3,1.1,4.3c.8,1.2,1.8,2.2,3.2,3,1.4.7,3,1.1,4.8,1.1s2.7-.2,3.9-.7c1.1-.4,2-1.1,2.8-1.9l-2.5-2.7c-.5.5-1.1.9-1.8,1.2-.7.3-1.4.4-2.3.4s-1.8-.2-2.5-.5c-.7-.3-1.3-.9-1.6-1.5-.2-.4-.4-.8-.5-1.2h12.2c0-.2,0-.4,0-.6,0-.2,0-.4,0-.6,0-1.7-.4-3.2-1.1-4.5-.7-1.2-1.7-2.2-3-2.9ZM381.4,145.3c.6-.3,1.3-.5,2.1-.5s1.5.2,2.1.5c.6.4,1.1.8,1.4,1.5.2.4.4.9.4,1.4h-7.9c0-.5.2-1,.4-1.4.3-.6.8-1.1,1.4-1.5Z"/>
    <path class="cls-2" d="M406.7,143.2c-.4-.4-.8-.8-1.3-1-1-.6-2.2-.9-3.6-.9s-2.9.3-4.1,1c-1.2.7-2.2,1.6-2.9,2.9-.7,1.2-1.1,2.7-1.1,4.4s.4,3.1,1.1,4.4c.7,1.2,1.7,2.2,2.9,2.9,1.2.7,2.6,1,4.1,1s2.6-.3,3.6-.9c.5-.3,1-.7,1.4-1.2v1.9h4.5v-22.3h-4.7v7.8ZM406.3,151.9c-.4.7-.9,1.2-1.5,1.5-.6.4-1.3.5-2.1.5s-1.5-.2-2.1-.5c-.6-.4-1.1-.9-1.5-1.5-.4-.7-.6-1.5-.6-2.4s.2-1.7.6-2.4c.4-.7.9-1.2,1.5-1.5.6-.4,1.3-.5,2.1-.5s1.4.2,2.1.5c.6.4,1.1.9,1.5,1.5s.6,1.5.6,2.4-.2,1.7-.6,2.4Z"/>
    <path class="cls-2" d="M427.4,142.3c-1.3-.7-2.7-1-4.3-1s-3.1.4-4.4,1.1c-1.3.7-2.3,1.7-3.1,2.9-.7,1.2-1.1,2.7-1.1,4.3s.4,3,1.1,4.3c.8,1.2,1.8,2.2,3.2,3,1.4.7,3,1.1,4.8,1.1s2.7-.2,3.9-.7c1.1-.4,2-1.1,2.8-1.9l-2.5-2.7c-.5.5-1.1.9-1.8,1.2-.7.3-1.4.4-2.3.4s-1.8-.2-2.5-.5c-.7-.3-1.3-.9-1.6-1.5-.2-.4-.4-.8-.5-1.2h12.2c0-.2,0-.4,0-.6,0-.2,0-.4,0-.6,0-1.7-.4-3.2-1.1-4.5-.7-1.2-1.7-2.2-3-2.9ZM421.1,145.3c.6-.3,1.3-.5,2.1-.5s1.5.2,2.1.5c.6.4,1.1.8,1.4,1.5.2.4.4.9.4,1.4h-7.9c0-.5.2-1,.4-1.4.3-.6.8-1.1,1.4-1.5Z"/>
    <path class="cls-2" d="M439.1,143.6v-2.1h-4.5v16.1h4.7v-7.6c0-1.5.4-2.7,1.2-3.4.8-.7,1.8-1.1,3.1-1.1s.3,0,.5,0c.2,0,.3,0,.5,0v-4.3c-1.5,0-2.8.3-3.9.9-.7.4-1.2.9-1.7,1.5Z"/>
    <path class="cls-2" d="M458.7,143c-1.4-1.2-3.3-1.7-5.7-1.7s-2.5.2-3.8.5c-1.2.3-2.3.8-3.2,1.4l1.7,3.3c.6-.5,1.3-.8,2.1-1.1.8-.3,1.7-.4,2.5-.4,1.3,0,2.2.3,2.8.8.6.6.9,1.3.9,2.3h-3.7c-1.6,0-3,.2-4,.6-1,.4-1.8,1-2.2,1.7-.5.7-.7,1.6-.7,2.5s.2,1.7.7,2.5,1.2,1.3,2.1,1.8c.9.4,2,.6,3.2.6s2.6-.3,3.5-.8c.6-.4,1.1-.9,1.4-1.5v2h4.4v-9.2c0-2.5-.7-4.3-2-5.4ZM454.7,154.2c-.6.4-1.3.6-2.1.6s-1.5-.2-1.9-.5c-.5-.3-.7-.8-.7-1.4s.2-1,.6-1.3c.4-.4,1.2-.5,2.3-.5h3.2v1.6c-.3.7-.7,1.3-1.3,1.6Z"/>
    <path class="cls-2" d="M472.2,154.1c-.6,0-1.1-.2-1.5-.6-.4-.4-.5-.9-.5-1.6v-6.6h4v-3.6h-4v-3.9h-4.7v3.9h-2.5v3.6h2.5v6.6c0,1.9.5,3.4,1.6,4.3,1.1,1,2.5,1.5,4.4,1.5s1.4,0,2.1-.3c.7-.2,1.2-.4,1.7-.8l-1.3-3.3c-.5.4-1.2.6-1.9.6Z"/>
    <rect class="cls-2" x="478" y="141.5" width="4.7" height="16.1"/>
    <path class="cls-2" d="M480.3,134c-.9,0-1.6.3-2.1.7-.5.5-.8,1.1-.8,1.9s.3,1.4.8,1.9c.5.5,1.2.7,2.1.7s1.6-.3,2.1-.8c.5-.5.8-1.2.8-1.9s-.3-1.3-.8-1.8c-.5-.5-1.2-.7-2.1-.7Z"/>
    <path class="cls-2" d="M499.2,142.3c-1.3-.7-2.9-1.1-4.6-1.1s-3.2.4-4.6,1.1c-1.3.7-2.4,1.7-3.1,2.9-.8,1.2-1.2,2.7-1.2,4.3s.4,3,1.2,4.3c.8,1.2,1.8,2.2,3.1,3,1.3.7,2.9,1.1,4.6,1.1s3.2-.4,4.6-1.1c1.3-.7,2.4-1.7,3.1-3,.8-1.2,1.1-2.7,1.1-4.3s-.4-3.1-1.1-4.3c-.8-1.2-1.8-2.2-3.1-2.9ZM498.3,151.9c-.4.7-.9,1.2-1.5,1.5-.6.4-1.3.5-2.1.5s-1.5-.2-2.1-.5c-.6-.4-1.1-.9-1.5-1.5-.4-.7-.6-1.5-.6-2.4s.2-1.7.6-2.4.9-1.2,1.5-1.5c.6-.4,1.3-.5,2.1-.5s1.5.2,2.1.5c.6.4,1.1.9,1.5,1.5.4.7.5,1.5.5,2.4s-.2,1.7-.5,2.4Z"/>
    <path class="cls-2" d="M522.3,144.4c-.6-1-1.4-1.8-2.4-2.3-1-.5-2.2-.8-3.4-.8s-2.6.3-3.7.9c-.6.3-1.2.8-1.6,1.3v-1.9h-4.5v16.1h4.7v-8c0-1,.2-1.8.5-2.5.3-.6.8-1.1,1.4-1.4.6-.3,1.3-.5,2-.5s1.8.3,2.4.9c.6.6.9,1.6.9,2.9v8.5h4.7v-9.2c0-1.6-.3-3-.9-4Z"/>
    <path class="cls-2" d="M490,81.9c-.5.3-1.2.4-2.3.4s-2-.1-3-.4c-1-.3-1.9-.7-2.6-1.1l-1.6,3.4c.7.5,1.8.9,3,1.2,1.3.3,2.6.5,4,.5s3-.2,4.1-.7c1.1-.4,2-1,2.6-1.8.6-.8.9-1.7.9-2.7s-.2-1.7-.5-2.2c-.4-.6-.8-1-1.4-1.4-.6-.3-1.2-.6-1.9-.8-.7-.2-1.4-.3-2.1-.4-.7,0-1.3-.2-1.9-.3-.6-.1-1-.3-1.4-.5-.4-.2-.5-.5-.5-.9s.2-.8.7-1.1c.5-.3,1.2-.4,2.3-.4s1.5,0,2.3.3c.8.2,1.6.5,2.4.9l1.6-3.3c-.8-.5-1.7-.8-2.9-1.1-1.1-.2-2.3-.4-3.4-.4-1.6,0-2.9.2-4,.7-1.1.5-2,1.1-2.6,1.9-.6.8-.9,1.7-.9,2.7s.2,1.7.5,2.3c.4.6.8,1,1.4,1.4.6.3,1.2.6,1.9.8.7.2,1.4.3,2.1.4.7.1,1.3.2,1.9.3.6.1,1,.2,1.4.4.4.2.5.5.5.9s-.2.8-.7,1.1Z"/>
  </g>
</svg>